<svg width="10" height="19" viewBox="0 0 10 19" fill="none" xmlns="http://www.w3.org/2000/svg">
<path d="M9.5 3.74121H6.5C5.9477 3.74121 5.5 4.18893 5.5 4.74121V7.74121H9.5C9.6137 7.73869 9.7216 7.79161 9.7892 7.88311C9.8568 7.97461 9.8758 8.09321 9.84 8.20121L9.1 10.4012C9.0318 10.6031 8.8431 10.7396 8.63 10.7412H5.5V18.2412C5.5 18.5173 5.2761 18.7412 5 18.7412H2.5C2.22386 18.7412 2 18.5173 2 18.2412V10.7412H0.5C0.22386 10.7412 0 10.5173 0 10.2412V8.24121C0 7.96511 0.22386 7.74121 0.5 7.74121H2V4.74121C2 2.53207 3.7909 0.741211 6 0.741211H9.5C9.7761 0.741211 10 0.965071 10 1.24121V3.24121C10 3.51735 9.7761 3.74121 9.5 3.74121Z" fill="black"/>
</svg>
