<svg width="18" height="19" viewBox="0 0 18 19" fill="none" xmlns="http://www.w3.org/2000/svg">
<path fill-rule="evenodd" clip-rule="evenodd" d="M13 0.741211H5C2.23858 0.741211 0 2.97979 0 5.74121V13.7412C0 16.5026 2.23858 18.7412 5 18.7412H13C15.7614 18.7412 18 16.5026 18 13.7412V5.74121C18 2.97979 15.7614 0.741211 13 0.741211ZM16.25 13.7412C16.2445 15.5338 14.7926 16.9857 13 16.9912H5C3.20735 16.9857 1.75549 15.5338 1.75 13.7412V5.74121C1.75549 3.94856 3.20735 2.4967 5 2.49121H13C14.7926 2.4967 16.2445 3.94856 16.25 5.74121V13.7412ZM13.75 5.99121C14.3023 5.99121 14.75 5.54349 14.75 4.99121C14.75 4.43893 14.3023 3.99121 13.75 3.99121C13.1977 3.99121 12.75 4.43893 12.75 4.99121C12.75 5.54349 13.1977 5.99121 13.75 5.99121ZM9 5.24121C6.51472 5.24121 4.5 7.25593 4.5 9.74121C4.5 12.2265 6.51472 14.2412 9 14.2412C11.4853 14.2412 13.5 12.2265 13.5 9.74121C13.5027 8.54691 13.0294 7.40078 12.1849 6.55629C11.3404 5.7118 10.1943 5.23855 9 5.24121ZM6.25 9.74121C6.25 11.26 7.4812 12.4912 9 12.4912C10.5188 12.4912 11.75 11.26 11.75 9.74121C11.75 8.22241 10.5188 6.99121 9 6.99121C7.4812 6.99121 6.25 8.22241 6.25 9.74121Z" fill="black"/>
</svg>
