<svg width="18" height="16" viewBox="0 0 18 16" fill="none" xmlns="http://www.w3.org/2000/svg">
<path d="M17.9727 2.45861C17.5083 3.07813 16.9469 3.61854 16.3102 4.05897C16.3102 4.2208 16.3102 4.38263 16.3102 4.55346C16.3153 7.49231 15.1414 10.3103 13.0517 12.3757C10.9619 14.4411 8.13108 15.5811 5.19393 15.5401C3.49587 15.5458 1.81955 15.1581 0.2963 14.4073C0.21416 14.3714 0.16119 14.2902 0.1615 14.2005V14.1016C0.1615 13.9725 0.26611 13.8679 0.39515 13.8679C2.0643 13.8128 3.6739 13.2341 4.99622 12.2136C3.48541 12.1831 2.12607 11.2881 1.50048 9.91191C1.46889 9.83681 1.47872 9.75051 1.52645 9.68441C1.57417 9.61831 1.65288 9.58191 1.73413 9.58831C2.1933 9.63441 2.65706 9.59171 3.10008 9.46241C1.43227 9.11621 0.17909 7.73161 -0.000260003 6.03691C-0.00663 5.95561 0.0297999 5.87691 0.0958799 5.82911C0.16195 5.78141 0.24812 5.77151 0.32326 5.80321C0.77082 6.00071 1.25397 6.10471 1.74312 6.10881C0.28172 5.14967 -0.34951 3.32526 0.20643 1.66743C0.26382 1.50634 0.40169 1.38733 0.56938 1.35415C0.73706 1.32096 0.90984 1.37849 1.0242 1.5056C2.99627 3.60446 5.70592 4.85517 8.58178 4.994C8.50818 4.70006 8.47198 4.39797 8.47398 4.09493C8.50088 2.50593 9.48408 1.09042 10.9633 0.511083C12.4424 -0.0682473 14.1248 0.303243 15.2229 1.45165C15.9713 1.30906 16.6949 1.05766 17.3706 0.705423C17.4201 0.674523 17.4829 0.674523 17.5324 0.705423C17.5633 0.754943 17.5633 0.817733 17.5324 0.867253C17.2051 1.61673 16.6522 2.24533 15.9508 2.6654C16.565 2.59417 17.1684 2.44928 17.7481 2.23385C17.7969 2.20063 17.861 2.20063 17.9098 2.23385C17.9507 2.25255 17.9813 2.28832 17.9934 2.33163C18.0055 2.37494 17.9979 2.42139 17.9727 2.45861Z" fill="black"/>
</svg>
