<svg width="18" height="19" viewBox="0 0 18 19" fill="none" xmlns="http://www.w3.org/2000/svg">
<path fill-rule="evenodd" clip-rule="evenodd" d="M2 0.741211H16C17.1046 0.741211 18 1.63664 18 2.74121V16.7412C18 17.8458 17.1046 18.7412 16 18.7412H2C0.89543 18.7412 0 17.8458 0 16.7412V2.74121C0 1.63664 0.89543 0.741211 2 0.741211ZM5 15.7412C5.27614 15.7412 5.5 15.5173 5.5 15.2412V8.24121C5.5 7.96511 5.27614 7.74121 5 7.74121H3.5C3.22386 7.74121 3 7.96511 3 8.24121V15.2412C3 15.5173 3.22386 15.7412 3.5 15.7412H5ZM4.25 6.74121C3.42157 6.74121 2.75 6.06964 2.75 5.24121C2.75 4.41278 3.42157 3.74121 4.25 3.74121C5.07843 3.74121 5.75 4.41278 5.75 5.24121C5.75 6.06964 5.07843 6.74121 4.25 6.74121ZM14.5 15.7412C14.7761 15.7412 15 15.5173 15 15.2412V10.6412C15.0325 9.05201 13.8576 7.69573 12.28 7.50121C11.177 7.40046 10.1083 7.91561 9.5 8.84121V8.24121C9.5 7.96511 9.2761 7.74121 9 7.74121H7.5C7.2239 7.74121 7 7.96511 7 8.24121V15.2412C7 15.5173 7.2239 15.7412 7.5 15.7412H9C9.2761 15.7412 9.5 15.5173 9.5 15.2412V11.4912C9.5 10.6628 10.1716 9.99121 11 9.99121C11.8284 9.99121 12.5 10.6628 12.5 11.4912V15.2412C12.5 15.5173 12.7239 15.7412 13 15.7412H14.5Z" fill="black"/>
</svg>
